<mxfile host="app.diagrams.net" modified="2021-06-23T11:53:17.407Z" agent="5.0 (Windows NT 10.0; Win64; x64) AppleWebKit/537.36 (KHTML, like Gecko) Chrome/91.0.4472.114 Safari/537.36" etag="Nus-1WpTs_bJocBtLuSc" version="14.8.0" type="github">
  <diagram id="LTKDwJXusfUeaewL-iXT" name="Page-1">
    <mxGraphModel dx="894" dy="616" grid="1" gridSize="10" guides="1" tooltips="1" connect="1" arrows="1" fold="1" page="0" pageScale="1" pageWidth="827" pageHeight="1169" math="0" shadow="0">
      <root>
        <mxCell id="0" />
        <mxCell id="1" parent="0" />
        <mxCell id="zOngYcJwQ9FTCwN-Xkql-32" value="" style="group" vertex="1" connectable="0" parent="1">
          <mxGeometry x="90" y="60" width="642" height="175" as="geometry" />
        </mxCell>
        <mxCell id="zOngYcJwQ9FTCwN-Xkql-1" value="" style="rounded=0;whiteSpace=wrap;html=1;fillColor=#f5f5f5;strokeColor=#666666;fontColor=#333333;" vertex="1" parent="zOngYcJwQ9FTCwN-Xkql-32">
          <mxGeometry x="85" y="50" width="100" height="40" as="geometry" />
        </mxCell>
        <mxCell id="zOngYcJwQ9FTCwN-Xkql-2" value="头" style="rounded=0;whiteSpace=wrap;html=1;fillColor=#d5e8d4;strokeColor=#82b366;" vertex="1" parent="zOngYcJwQ9FTCwN-Xkql-32">
          <mxGeometry x="105" y="50" width="60" height="40" as="geometry" />
        </mxCell>
        <mxCell id="zOngYcJwQ9FTCwN-Xkql-3" value="NULL" style="text;html=1;align=center;verticalAlign=middle;resizable=0;points=[];autosize=1;strokeColor=none;" vertex="1" parent="zOngYcJwQ9FTCwN-Xkql-32">
          <mxGeometry y="60" width="50" height="20" as="geometry" />
        </mxCell>
        <mxCell id="zOngYcJwQ9FTCwN-Xkql-31" value="" style="edgeStyle=orthogonalEdgeStyle;rounded=0;orthogonalLoop=1;jettySize=auto;html=1;" edge="1" parent="zOngYcJwQ9FTCwN-Xkql-32" source="zOngYcJwQ9FTCwN-Xkql-1" target="zOngYcJwQ9FTCwN-Xkql-3">
          <mxGeometry relative="1" as="geometry" />
        </mxCell>
        <mxCell id="zOngYcJwQ9FTCwN-Xkql-6" value="" style="edgeStyle=orthogonalEdgeStyle;rounded=0;orthogonalLoop=1;jettySize=auto;html=1;" edge="1" parent="zOngYcJwQ9FTCwN-Xkql-32" source="zOngYcJwQ9FTCwN-Xkql-5" target="zOngYcJwQ9FTCwN-Xkql-2">
          <mxGeometry relative="1" as="geometry" />
        </mxCell>
        <mxCell id="zOngYcJwQ9FTCwN-Xkql-5" value="L" style="text;html=1;align=center;verticalAlign=middle;resizable=0;points=[];autosize=1;strokeColor=none;" vertex="1" parent="zOngYcJwQ9FTCwN-Xkql-32">
          <mxGeometry x="125" width="20" height="20" as="geometry" />
        </mxCell>
        <mxCell id="zOngYcJwQ9FTCwN-Xkql-17" style="edgeStyle=orthogonalEdgeStyle;rounded=0;orthogonalLoop=1;jettySize=auto;html=1;exitX=0;exitY=0.75;exitDx=0;exitDy=0;entryX=1;entryY=0.75;entryDx=0;entryDy=0;" edge="1" parent="zOngYcJwQ9FTCwN-Xkql-32" source="zOngYcJwQ9FTCwN-Xkql-7" target="zOngYcJwQ9FTCwN-Xkql-1">
          <mxGeometry relative="1" as="geometry" />
        </mxCell>
        <mxCell id="zOngYcJwQ9FTCwN-Xkql-13" value="" style="group" vertex="1" connectable="0" parent="zOngYcJwQ9FTCwN-Xkql-32">
          <mxGeometry x="413" y="50" width="100" height="40" as="geometry" />
        </mxCell>
        <mxCell id="zOngYcJwQ9FTCwN-Xkql-9" value="" style="rounded=0;whiteSpace=wrap;html=1;fillColor=#f5f5f5;strokeColor=#666666;fontColor=#333333;" vertex="1" parent="zOngYcJwQ9FTCwN-Xkql-13">
          <mxGeometry width="100" height="40" as="geometry" />
        </mxCell>
        <mxCell id="zOngYcJwQ9FTCwN-Xkql-10" value="a2" style="rounded=0;whiteSpace=wrap;html=1;fillColor=#d5e8d4;strokeColor=#82b366;" vertex="1" parent="zOngYcJwQ9FTCwN-Xkql-13">
          <mxGeometry x="20" width="60" height="40" as="geometry" />
        </mxCell>
        <mxCell id="zOngYcJwQ9FTCwN-Xkql-20" style="edgeStyle=orthogonalEdgeStyle;rounded=0;orthogonalLoop=1;jettySize=auto;html=1;exitX=0;exitY=0.75;exitDx=0;exitDy=0;entryX=1;entryY=0.75;entryDx=0;entryDy=0;" edge="1" parent="zOngYcJwQ9FTCwN-Xkql-32" source="zOngYcJwQ9FTCwN-Xkql-9" target="zOngYcJwQ9FTCwN-Xkql-7">
          <mxGeometry relative="1" as="geometry" />
        </mxCell>
        <mxCell id="zOngYcJwQ9FTCwN-Xkql-21" style="edgeStyle=orthogonalEdgeStyle;rounded=0;orthogonalLoop=1;jettySize=auto;html=1;exitX=1;exitY=0.5;exitDx=0;exitDy=0;" edge="1" parent="zOngYcJwQ9FTCwN-Xkql-32" source="zOngYcJwQ9FTCwN-Xkql-9">
          <mxGeometry relative="1" as="geometry">
            <mxPoint x="588" y="70" as="targetPoint" />
          </mxGeometry>
        </mxCell>
        <mxCell id="zOngYcJwQ9FTCwN-Xkql-22" value="NULL" style="text;html=1;align=center;verticalAlign=middle;resizable=0;points=[];autosize=1;strokeColor=none;" vertex="1" parent="zOngYcJwQ9FTCwN-Xkql-32">
          <mxGeometry x="592" y="60" width="50" height="20" as="geometry" />
        </mxCell>
        <mxCell id="zOngYcJwQ9FTCwN-Xkql-23" value="P" style="text;html=1;align=center;verticalAlign=middle;resizable=0;points=[];autosize=1;strokeColor=none;" vertex="1" parent="zOngYcJwQ9FTCwN-Xkql-32">
          <mxGeometry x="299" y="129" width="20" height="20" as="geometry" />
        </mxCell>
        <mxCell id="zOngYcJwQ9FTCwN-Xkql-28" value="" style="group" vertex="1" connectable="0" parent="zOngYcJwQ9FTCwN-Xkql-32">
          <mxGeometry x="259" y="50" width="100" height="40" as="geometry" />
        </mxCell>
        <mxCell id="zOngYcJwQ9FTCwN-Xkql-7" value="" style="rounded=0;whiteSpace=wrap;html=1;fillColor=#f5f5f5;strokeColor=#666666;fontColor=#333333;" vertex="1" parent="zOngYcJwQ9FTCwN-Xkql-28">
          <mxGeometry width="100" height="40" as="geometry" />
        </mxCell>
        <mxCell id="zOngYcJwQ9FTCwN-Xkql-27" value="a1" style="rounded=0;whiteSpace=wrap;html=1;fillColor=#d5e8d4;strokeColor=#82b366;" vertex="1" parent="zOngYcJwQ9FTCwN-Xkql-28">
          <mxGeometry x="20" width="60" height="40" as="geometry" />
        </mxCell>
        <mxCell id="zOngYcJwQ9FTCwN-Xkql-15" style="edgeStyle=orthogonalEdgeStyle;rounded=0;orthogonalLoop=1;jettySize=auto;html=1;exitX=1;exitY=0.25;exitDx=0;exitDy=0;entryX=0;entryY=0.25;entryDx=0;entryDy=0;" edge="1" parent="zOngYcJwQ9FTCwN-Xkql-32" source="zOngYcJwQ9FTCwN-Xkql-1" target="zOngYcJwQ9FTCwN-Xkql-7">
          <mxGeometry relative="1" as="geometry" />
        </mxCell>
        <mxCell id="zOngYcJwQ9FTCwN-Xkql-19" style="edgeStyle=orthogonalEdgeStyle;rounded=0;orthogonalLoop=1;jettySize=auto;html=1;exitX=1;exitY=0.25;exitDx=0;exitDy=0;entryX=0;entryY=0.25;entryDx=0;entryDy=0;" edge="1" parent="zOngYcJwQ9FTCwN-Xkql-32" source="zOngYcJwQ9FTCwN-Xkql-7" target="zOngYcJwQ9FTCwN-Xkql-9">
          <mxGeometry relative="1" as="geometry" />
        </mxCell>
        <mxCell id="zOngYcJwQ9FTCwN-Xkql-30" value="" style="edgeStyle=orthogonalEdgeStyle;rounded=0;orthogonalLoop=1;jettySize=auto;html=1;" edge="1" parent="zOngYcJwQ9FTCwN-Xkql-32" source="zOngYcJwQ9FTCwN-Xkql-23" target="zOngYcJwQ9FTCwN-Xkql-27">
          <mxGeometry relative="1" as="geometry" />
        </mxCell>
        <mxCell id="zOngYcJwQ9FTCwN-Xkql-33" value="" style="group" vertex="1" connectable="0" parent="1">
          <mxGeometry x="110" y="350" width="100" height="40" as="geometry" />
        </mxCell>
        <mxCell id="zOngYcJwQ9FTCwN-Xkql-34" value="" style="rounded=0;whiteSpace=wrap;html=1;fillColor=#f5f5f5;strokeColor=#666666;fontColor=#333333;" vertex="1" parent="zOngYcJwQ9FTCwN-Xkql-33">
          <mxGeometry width="100" height="40" as="geometry" />
        </mxCell>
        <mxCell id="zOngYcJwQ9FTCwN-Xkql-35" value="头" style="rounded=0;whiteSpace=wrap;html=1;fillColor=#d5e8d4;strokeColor=#82b366;" vertex="1" parent="zOngYcJwQ9FTCwN-Xkql-33">
          <mxGeometry x="20" width="60" height="40" as="geometry" />
        </mxCell>
        <mxCell id="zOngYcJwQ9FTCwN-Xkql-42" value="" style="group;" vertex="1" connectable="0" parent="1">
          <mxGeometry x="250" y="350" width="100" height="40" as="geometry" />
        </mxCell>
        <mxCell id="zOngYcJwQ9FTCwN-Xkql-43" value="" style="rounded=0;whiteSpace=wrap;html=1;fillColor=#f5f5f5;strokeColor=#666666;fontColor=#333333;" vertex="1" parent="zOngYcJwQ9FTCwN-Xkql-42">
          <mxGeometry width="100" height="40" as="geometry" />
        </mxCell>
        <mxCell id="zOngYcJwQ9FTCwN-Xkql-44" value="a1" style="rounded=0;whiteSpace=wrap;html=1;fillColor=#d5e8d4;strokeColor=#82b366;" vertex="1" parent="zOngYcJwQ9FTCwN-Xkql-42">
          <mxGeometry x="20" width="60" height="40" as="geometry" />
        </mxCell>
        <mxCell id="zOngYcJwQ9FTCwN-Xkql-47" value="" style="group" vertex="1" connectable="0" parent="1">
          <mxGeometry x="560" y="350" width="100" height="40" as="geometry" />
        </mxCell>
        <mxCell id="zOngYcJwQ9FTCwN-Xkql-48" value="" style="rounded=0;whiteSpace=wrap;html=1;fillColor=#f5f5f5;strokeColor=#666666;fontColor=#333333;" vertex="1" parent="zOngYcJwQ9FTCwN-Xkql-47">
          <mxGeometry width="100" height="40" as="geometry" />
        </mxCell>
        <mxCell id="zOngYcJwQ9FTCwN-Xkql-49" value="a2" style="rounded=0;whiteSpace=wrap;html=1;fillColor=#d5e8d4;strokeColor=#82b366;" vertex="1" parent="zOngYcJwQ9FTCwN-Xkql-47">
          <mxGeometry x="20" width="60" height="40" as="geometry" />
        </mxCell>
        <mxCell id="zOngYcJwQ9FTCwN-Xkql-50" value="" style="group" vertex="1" connectable="0" parent="1">
          <mxGeometry x="720" y="350" width="100" height="40" as="geometry" />
        </mxCell>
        <mxCell id="zOngYcJwQ9FTCwN-Xkql-51" value="" style="rounded=0;whiteSpace=wrap;html=1;fillColor=#f5f5f5;strokeColor=#666666;fontColor=#333333;" vertex="1" parent="zOngYcJwQ9FTCwN-Xkql-50">
          <mxGeometry width="100" height="40" as="geometry" />
        </mxCell>
        <mxCell id="zOngYcJwQ9FTCwN-Xkql-52" value="a3" style="rounded=0;whiteSpace=wrap;html=1;fillColor=#d5e8d4;strokeColor=#82b366;" vertex="1" parent="zOngYcJwQ9FTCwN-Xkql-50">
          <mxGeometry x="20" width="60" height="40" as="geometry" />
        </mxCell>
        <mxCell id="zOngYcJwQ9FTCwN-Xkql-53" style="edgeStyle=orthogonalEdgeStyle;rounded=0;orthogonalLoop=1;jettySize=auto;html=1;exitX=1;exitY=0.25;exitDx=0;exitDy=0;entryX=0;entryY=0.25;entryDx=0;entryDy=0;" edge="1" parent="1" source="zOngYcJwQ9FTCwN-Xkql-34" target="zOngYcJwQ9FTCwN-Xkql-43">
          <mxGeometry relative="1" as="geometry" />
        </mxCell>
        <mxCell id="zOngYcJwQ9FTCwN-Xkql-54" style="edgeStyle=orthogonalEdgeStyle;rounded=0;orthogonalLoop=1;jettySize=auto;html=1;exitX=1;exitY=0.25;exitDx=0;exitDy=0;entryX=0;entryY=0.25;entryDx=0;entryDy=0;" edge="1" parent="1" source="zOngYcJwQ9FTCwN-Xkql-43" target="zOngYcJwQ9FTCwN-Xkql-48">
          <mxGeometry relative="1" as="geometry" />
        </mxCell>
        <mxCell id="zOngYcJwQ9FTCwN-Xkql-98" value="&lt;span style=&quot;color: rgba(0 , 0 , 0 , 0) ; font-family: monospace ; font-size: 0px ; background-color: rgb(248 , 249 , 250)&quot;&gt;%3CmxGraphModel%3E%3Croot%3E%3CmxCell%20id%3D%220%22%2F%3E%3CmxCell%20id%3D%221%22%20parent%3D%220%22%2F%3E%3CmxCell%20id%3D%222%22%20value%3D%22%E2%91%A1X%22%20style%3D%22edgeLabel%3Bhtml%3D1%3Balign%3Dcenter%3BverticalAlign%3Dmiddle%3Bresizable%3D0%3Bpoints%3D%5B%5D%3BfontSize%3D17%3BfontColor%3D%23FF0000%3B%22%20vertex%3D%221%22%20connectable%3D%220%22%20parent%3D%221%22%3E%3CmxGeometry%20x%3D%22445%22%20y%3D%22380%22%20as%3D%22geometry%22%2F%3E%3C%2FmxCell%3E%3C%2Froot%3E%3C%2FmxGraphModel%3E&lt;/span&gt;" style="edgeLabel;html=1;align=center;verticalAlign=middle;resizable=0;points=[];fontSize=11;fontColor=#FF0000;" vertex="1" connectable="0" parent="zOngYcJwQ9FTCwN-Xkql-54">
          <mxGeometry x="-0.1333" y="-2" relative="1" as="geometry">
            <mxPoint y="1" as="offset" />
          </mxGeometry>
        </mxCell>
        <mxCell id="zOngYcJwQ9FTCwN-Xkql-55" style="edgeStyle=orthogonalEdgeStyle;rounded=0;orthogonalLoop=1;jettySize=auto;html=1;exitX=1;exitY=0.25;exitDx=0;exitDy=0;entryX=0;entryY=0.25;entryDx=0;entryDy=0;" edge="1" parent="1" source="zOngYcJwQ9FTCwN-Xkql-48" target="zOngYcJwQ9FTCwN-Xkql-51">
          <mxGeometry relative="1" as="geometry" />
        </mxCell>
        <mxCell id="zOngYcJwQ9FTCwN-Xkql-57" value="" style="edgeStyle=orthogonalEdgeStyle;rounded=0;orthogonalLoop=1;jettySize=auto;html=1;" edge="1" parent="1" source="zOngYcJwQ9FTCwN-Xkql-56" target="zOngYcJwQ9FTCwN-Xkql-44">
          <mxGeometry relative="1" as="geometry" />
        </mxCell>
        <mxCell id="zOngYcJwQ9FTCwN-Xkql-56" value="P" style="text;html=1;align=center;verticalAlign=middle;resizable=0;points=[];autosize=1;strokeColor=none;" vertex="1" parent="1">
          <mxGeometry x="290" y="430" width="20" height="20" as="geometry" />
        </mxCell>
        <mxCell id="zOngYcJwQ9FTCwN-Xkql-58" style="edgeStyle=orthogonalEdgeStyle;rounded=0;orthogonalLoop=1;jettySize=auto;html=1;exitX=0;exitY=0.75;exitDx=0;exitDy=0;entryX=1;entryY=0.75;entryDx=0;entryDy=0;" edge="1" parent="1" source="zOngYcJwQ9FTCwN-Xkql-43" target="zOngYcJwQ9FTCwN-Xkql-34">
          <mxGeometry relative="1" as="geometry" />
        </mxCell>
        <mxCell id="zOngYcJwQ9FTCwN-Xkql-59" style="edgeStyle=orthogonalEdgeStyle;rounded=0;orthogonalLoop=1;jettySize=auto;html=1;exitX=0;exitY=0.75;exitDx=0;exitDy=0;entryX=1;entryY=0.75;entryDx=0;entryDy=0;" edge="1" parent="1" source="zOngYcJwQ9FTCwN-Xkql-48" target="zOngYcJwQ9FTCwN-Xkql-43">
          <mxGeometry relative="1" as="geometry" />
        </mxCell>
        <mxCell id="zOngYcJwQ9FTCwN-Xkql-85" value="②X" style="edgeLabel;html=1;align=center;verticalAlign=middle;resizable=0;points=[];fontSize=17;fontColor=#FF0000;" vertex="1" connectable="0" parent="zOngYcJwQ9FTCwN-Xkql-59">
          <mxGeometry x="0.0952" relative="1" as="geometry">
            <mxPoint x="-23" as="offset" />
          </mxGeometry>
        </mxCell>
        <mxCell id="zOngYcJwQ9FTCwN-Xkql-60" style="edgeStyle=orthogonalEdgeStyle;rounded=0;orthogonalLoop=1;jettySize=auto;html=1;exitX=0;exitY=0.75;exitDx=0;exitDy=0;entryX=1;entryY=0.75;entryDx=0;entryDy=0;" edge="1" parent="1" source="zOngYcJwQ9FTCwN-Xkql-51" target="zOngYcJwQ9FTCwN-Xkql-48">
          <mxGeometry relative="1" as="geometry" />
        </mxCell>
        <mxCell id="zOngYcJwQ9FTCwN-Xkql-61" value="" style="group" vertex="1" connectable="0" parent="1">
          <mxGeometry x="396" y="460" width="100" height="40" as="geometry" />
        </mxCell>
        <mxCell id="zOngYcJwQ9FTCwN-Xkql-62" value="" style="rounded=0;whiteSpace=wrap;html=1;fillColor=#f5f5f5;strokeColor=#666666;fontColor=#333333;" vertex="1" parent="zOngYcJwQ9FTCwN-Xkql-61">
          <mxGeometry width="100" height="40" as="geometry" />
        </mxCell>
        <mxCell id="zOngYcJwQ9FTCwN-Xkql-63" value="b" style="rounded=0;whiteSpace=wrap;html=1;fillColor=#d5e8d4;strokeColor=#82b366;" vertex="1" parent="zOngYcJwQ9FTCwN-Xkql-61">
          <mxGeometry x="20" width="60" height="40" as="geometry" />
        </mxCell>
        <mxCell id="zOngYcJwQ9FTCwN-Xkql-65" value="" style="edgeStyle=orthogonalEdgeStyle;rounded=0;orthogonalLoop=1;jettySize=auto;html=1;" edge="1" parent="1" source="zOngYcJwQ9FTCwN-Xkql-64" target="zOngYcJwQ9FTCwN-Xkql-63">
          <mxGeometry relative="1" as="geometry" />
        </mxCell>
        <mxCell id="zOngYcJwQ9FTCwN-Xkql-64" value="S" style="text;html=1;align=center;verticalAlign=middle;resizable=0;points=[];autosize=1;strokeColor=none;" vertex="1" parent="1">
          <mxGeometry x="436" y="550" width="20" height="20" as="geometry" />
        </mxCell>
        <mxCell id="zOngYcJwQ9FTCwN-Xkql-66" value="NULL" style="text;html=1;align=center;verticalAlign=middle;resizable=0;points=[];autosize=1;strokeColor=none;" vertex="1" parent="1">
          <mxGeometry x="40" y="360" width="50" height="20" as="geometry" />
        </mxCell>
        <mxCell id="zOngYcJwQ9FTCwN-Xkql-67" style="edgeStyle=orthogonalEdgeStyle;rounded=0;orthogonalLoop=1;jettySize=auto;html=1;exitX=0;exitY=0.5;exitDx=0;exitDy=0;" edge="1" parent="1" source="zOngYcJwQ9FTCwN-Xkql-34" target="zOngYcJwQ9FTCwN-Xkql-66">
          <mxGeometry relative="1" as="geometry" />
        </mxCell>
        <mxCell id="zOngYcJwQ9FTCwN-Xkql-78" value="" style="endArrow=classic;html=1;entryX=0;entryY=1;entryDx=0;entryDy=0;" edge="1" parent="1" target="zOngYcJwQ9FTCwN-Xkql-48">
          <mxGeometry width="50" height="50" relative="1" as="geometry">
            <mxPoint x="490" y="460" as="sourcePoint" />
            <mxPoint x="540" y="410" as="targetPoint" />
            <Array as="points" />
          </mxGeometry>
        </mxCell>
        <mxCell id="zOngYcJwQ9FTCwN-Xkql-80" value="&lt;font style=&quot;font-size: 15px;&quot;&gt;①s-&amp;gt;next = p-&amp;gt;next;&lt;/font&gt;" style="edgeLabel;html=1;align=center;verticalAlign=middle;resizable=0;points=[];fontColor=#FF3333;fontSize=15;" vertex="1" connectable="0" parent="zOngYcJwQ9FTCwN-Xkql-78">
          <mxGeometry x="-0.3357" y="-2" relative="1" as="geometry">
            <mxPoint x="-325" y="2" as="offset" />
          </mxGeometry>
        </mxCell>
        <mxCell id="zOngYcJwQ9FTCwN-Xkql-93" value="①" style="edgeLabel;html=1;align=center;verticalAlign=middle;resizable=0;points=[];fontSize=15;fontColor=#FF0000;" vertex="1" connectable="0" parent="zOngYcJwQ9FTCwN-Xkql-78">
          <mxGeometry x="-0.3357" y="3" relative="1" as="geometry">
            <mxPoint as="offset" />
          </mxGeometry>
        </mxCell>
        <mxCell id="zOngYcJwQ9FTCwN-Xkql-82" value="" style="endArrow=classic;html=1;exitX=0.125;exitY=1.013;exitDx=0;exitDy=0;exitPerimeter=0;" edge="1" parent="1" source="zOngYcJwQ9FTCwN-Xkql-48">
          <mxGeometry width="50" height="50" relative="1" as="geometry">
            <mxPoint x="585" y="450" as="sourcePoint" />
            <mxPoint x="496" y="470" as="targetPoint" />
            <Array as="points" />
          </mxGeometry>
        </mxCell>
        <mxCell id="zOngYcJwQ9FTCwN-Xkql-83" value="&lt;font style=&quot;font-size: 15px&quot;&gt;②p-&amp;gt;next-&amp;gt;prior = s;&lt;/font&gt;" style="edgeLabel;html=1;align=center;verticalAlign=middle;resizable=0;points=[];fontColor=#FF0000;fontSize=15;" vertex="1" connectable="0" parent="zOngYcJwQ9FTCwN-Xkql-82">
          <mxGeometry x="0.4165" y="5" relative="1" as="geometry">
            <mxPoint x="-332" y="20" as="offset" />
          </mxGeometry>
        </mxCell>
        <mxCell id="zOngYcJwQ9FTCwN-Xkql-94" value="②" style="edgeLabel;html=1;align=center;verticalAlign=middle;resizable=0;points=[];fontSize=15;fontColor=#FF0000;" vertex="1" connectable="0" parent="zOngYcJwQ9FTCwN-Xkql-82">
          <mxGeometry x="-0.3004" y="3" relative="1" as="geometry">
            <mxPoint as="offset" />
          </mxGeometry>
        </mxCell>
        <mxCell id="zOngYcJwQ9FTCwN-Xkql-87" value="" style="endArrow=classic;html=1;fontSize=17;fontColor=#FF0000;entryX=1;entryY=1;entryDx=0;entryDy=0;exitX=0;exitY=0;exitDx=0;exitDy=0;" edge="1" parent="1" source="zOngYcJwQ9FTCwN-Xkql-62" target="zOngYcJwQ9FTCwN-Xkql-43">
          <mxGeometry width="50" height="50" relative="1" as="geometry">
            <mxPoint x="390" y="480" as="sourcePoint" />
            <mxPoint x="330" y="460" as="targetPoint" />
            <Array as="points" />
          </mxGeometry>
        </mxCell>
        <mxCell id="zOngYcJwQ9FTCwN-Xkql-88" value="③s-&amp;gt;prior = p;" style="edgeLabel;html=1;align=center;verticalAlign=middle;resizable=0;points=[];fontSize=15;fontColor=#FF0000;" vertex="1" connectable="0" parent="zOngYcJwQ9FTCwN-Xkql-87">
          <mxGeometry x="0.3557" y="-1" relative="1" as="geometry">
            <mxPoint x="-196" y="88" as="offset" />
          </mxGeometry>
        </mxCell>
        <mxCell id="zOngYcJwQ9FTCwN-Xkql-95" value="③" style="edgeLabel;html=1;align=center;verticalAlign=middle;resizable=0;points=[];fontSize=14;fontColor=#FF0000;" vertex="1" connectable="0" parent="zOngYcJwQ9FTCwN-Xkql-87">
          <mxGeometry x="0.3082" y="-1" relative="1" as="geometry">
            <mxPoint as="offset" />
          </mxGeometry>
        </mxCell>
        <mxCell id="zOngYcJwQ9FTCwN-Xkql-92" value="" style="endArrow=classic;html=1;fontSize=11;fontColor=#FF0000;entryX=0;entryY=0.5;entryDx=0;entryDy=0;" edge="1" parent="1" target="zOngYcJwQ9FTCwN-Xkql-62">
          <mxGeometry width="50" height="50" relative="1" as="geometry">
            <mxPoint x="337" y="392" as="sourcePoint" />
            <mxPoint x="450" y="480" as="targetPoint" />
          </mxGeometry>
        </mxCell>
        <mxCell id="zOngYcJwQ9FTCwN-Xkql-96" value="④" style="edgeLabel;html=1;align=center;verticalAlign=middle;resizable=0;points=[];fontSize=15;fontColor=#FF0000;" vertex="1" connectable="0" parent="zOngYcJwQ9FTCwN-Xkql-92">
          <mxGeometry x="0.28" y="-2" relative="1" as="geometry">
            <mxPoint as="offset" />
          </mxGeometry>
        </mxCell>
        <mxCell id="zOngYcJwQ9FTCwN-Xkql-97" value="④p-&amp;gt;next = s;" style="edgeLabel;html=1;align=center;verticalAlign=middle;resizable=0;points=[];fontSize=15;fontColor=#FF0000;" vertex="1" connectable="0" parent="1">
          <mxGeometry x="175.0025659400336" y="484.9956097703665" as="geometry">
            <mxPoint x="-6" y="45" as="offset" />
          </mxGeometry>
        </mxCell>
        <mxCell id="zOngYcJwQ9FTCwN-Xkql-99" value="④X" style="edgeLabel;html=1;align=center;verticalAlign=middle;resizable=0;points=[];fontSize=17;fontColor=#FF0000;" vertex="1" connectable="0" parent="1">
          <mxGeometry x="506" y="390" as="geometry">
            <mxPoint x="-17" y="-35" as="offset" />
          </mxGeometry>
        </mxCell>
        <mxCell id="zOngYcJwQ9FTCwN-Xkql-101" value="" style="edgeStyle=orthogonalEdgeStyle;rounded=0;orthogonalLoop=1;jettySize=auto;html=1;fontSize=15;fontColor=#FF0000;" edge="1" parent="1" source="zOngYcJwQ9FTCwN-Xkql-51">
          <mxGeometry relative="1" as="geometry">
            <mxPoint x="900" y="370" as="targetPoint" />
          </mxGeometry>
        </mxCell>
        <mxCell id="zOngYcJwQ9FTCwN-Xkql-102" value="&lt;font color=&quot;#000000&quot;&gt;NULL&lt;/font&gt;" style="text;html=1;align=center;verticalAlign=middle;resizable=0;points=[];autosize=1;strokeColor=none;fontSize=15;fontColor=#FF0000;" vertex="1" parent="1">
          <mxGeometry x="905" y="360" width="50" height="20" as="geometry" />
        </mxCell>
        <mxCell id="zOngYcJwQ9FTCwN-Xkql-106" value="" style="group" vertex="1" connectable="0" parent="1">
          <mxGeometry x="110" y="660" width="100" height="40" as="geometry" />
        </mxCell>
        <mxCell id="zOngYcJwQ9FTCwN-Xkql-107" value="" style="rounded=0;whiteSpace=wrap;html=1;fillColor=#f5f5f5;strokeColor=#666666;fontColor=#333333;" vertex="1" parent="zOngYcJwQ9FTCwN-Xkql-106">
          <mxGeometry width="100" height="40" as="geometry" />
        </mxCell>
        <mxCell id="zOngYcJwQ9FTCwN-Xkql-108" value="头" style="rounded=0;whiteSpace=wrap;html=1;fillColor=#d5e8d4;strokeColor=#82b366;" vertex="1" parent="zOngYcJwQ9FTCwN-Xkql-106">
          <mxGeometry x="20" width="60" height="40" as="geometry" />
        </mxCell>
        <mxCell id="zOngYcJwQ9FTCwN-Xkql-109" value="" style="group;" vertex="1" connectable="0" parent="1">
          <mxGeometry x="290" y="660" width="100" height="40" as="geometry" />
        </mxCell>
        <mxCell id="zOngYcJwQ9FTCwN-Xkql-110" value="" style="rounded=0;whiteSpace=wrap;html=1;fillColor=#f5f5f5;strokeColor=#666666;fontColor=#333333;" vertex="1" parent="zOngYcJwQ9FTCwN-Xkql-109">
          <mxGeometry width="100" height="40" as="geometry" />
        </mxCell>
        <mxCell id="zOngYcJwQ9FTCwN-Xkql-111" value="a1" style="rounded=0;whiteSpace=wrap;html=1;fillColor=#d5e8d4;strokeColor=#82b366;" vertex="1" parent="zOngYcJwQ9FTCwN-Xkql-109">
          <mxGeometry x="20" width="60" height="40" as="geometry" />
        </mxCell>
        <mxCell id="zOngYcJwQ9FTCwN-Xkql-112" value="" style="group" vertex="1" connectable="0" parent="1">
          <mxGeometry x="460" y="660" width="100" height="40" as="geometry" />
        </mxCell>
        <mxCell id="zOngYcJwQ9FTCwN-Xkql-113" value="" style="rounded=0;whiteSpace=wrap;html=1;fillColor=#f5f5f5;strokeColor=#666666;fontColor=#333333;" vertex="1" parent="zOngYcJwQ9FTCwN-Xkql-112">
          <mxGeometry width="100" height="40" as="geometry" />
        </mxCell>
        <mxCell id="zOngYcJwQ9FTCwN-Xkql-114" value="a2" style="rounded=0;whiteSpace=wrap;html=1;fillColor=#d5e8d4;strokeColor=#82b366;" vertex="1" parent="zOngYcJwQ9FTCwN-Xkql-112">
          <mxGeometry x="20" width="60" height="40" as="geometry" />
        </mxCell>
        <mxCell id="zOngYcJwQ9FTCwN-Xkql-115" value="" style="group" vertex="1" connectable="0" parent="1">
          <mxGeometry x="620" y="660" width="100" height="40" as="geometry" />
        </mxCell>
        <mxCell id="zOngYcJwQ9FTCwN-Xkql-116" value="" style="rounded=0;whiteSpace=wrap;html=1;fillColor=#f5f5f5;strokeColor=#666666;fontColor=#333333;" vertex="1" parent="zOngYcJwQ9FTCwN-Xkql-115">
          <mxGeometry width="100" height="40" as="geometry" />
        </mxCell>
        <mxCell id="zOngYcJwQ9FTCwN-Xkql-117" value="a3" style="rounded=0;whiteSpace=wrap;html=1;fillColor=#d5e8d4;strokeColor=#82b366;" vertex="1" parent="zOngYcJwQ9FTCwN-Xkql-115">
          <mxGeometry x="20" width="60" height="40" as="geometry" />
        </mxCell>
        <mxCell id="zOngYcJwQ9FTCwN-Xkql-118" style="edgeStyle=orthogonalEdgeStyle;rounded=0;orthogonalLoop=1;jettySize=auto;html=1;exitX=1;exitY=0.25;exitDx=0;exitDy=0;entryX=0;entryY=0.25;entryDx=0;entryDy=0;" edge="1" parent="1" source="zOngYcJwQ9FTCwN-Xkql-107" target="zOngYcJwQ9FTCwN-Xkql-110">
          <mxGeometry relative="1" as="geometry" />
        </mxCell>
        <mxCell id="zOngYcJwQ9FTCwN-Xkql-119" style="edgeStyle=orthogonalEdgeStyle;rounded=0;orthogonalLoop=1;jettySize=auto;html=1;exitX=1;exitY=0.25;exitDx=0;exitDy=0;entryX=0;entryY=0.25;entryDx=0;entryDy=0;" edge="1" parent="1" source="zOngYcJwQ9FTCwN-Xkql-110" target="zOngYcJwQ9FTCwN-Xkql-113">
          <mxGeometry relative="1" as="geometry" />
        </mxCell>
        <mxCell id="zOngYcJwQ9FTCwN-Xkql-120" value="&lt;span style=&quot;color: rgba(0 , 0 , 0 , 0) ; font-family: monospace ; font-size: 0px ; background-color: rgb(248 , 249 , 250)&quot;&gt;%3CmxGraphModel%3E%3Croot%3E%3CmxCell%20id%3D%220%22%2F%3E%3CmxCell%20id%3D%221%22%20parent%3D%220%22%2F%3E%3CmxCell%20id%3D%222%22%20value%3D%22%E2%91%A1X%22%20style%3D%22edgeLabel%3Bhtml%3D1%3Balign%3Dcenter%3BverticalAlign%3Dmiddle%3Bresizable%3D0%3Bpoints%3D%5B%5D%3BfontSize%3D17%3BfontColor%3D%23FF0000%3B%22%20vertex%3D%221%22%20connectable%3D%220%22%20parent%3D%221%22%3E%3CmxGeometry%20x%3D%22445%22%20y%3D%22380%22%20as%3D%22geometry%22%2F%3E%3C%2FmxCell%3E%3C%2Froot%3E%3C%2FmxGraphModel%3E&lt;/span&gt;" style="edgeLabel;html=1;align=center;verticalAlign=middle;resizable=0;points=[];fontSize=11;fontColor=#FF0000;" vertex="1" connectable="0" parent="zOngYcJwQ9FTCwN-Xkql-119">
          <mxGeometry x="-0.1333" y="-2" relative="1" as="geometry">
            <mxPoint y="1" as="offset" />
          </mxGeometry>
        </mxCell>
        <mxCell id="zOngYcJwQ9FTCwN-Xkql-121" style="edgeStyle=orthogonalEdgeStyle;rounded=0;orthogonalLoop=1;jettySize=auto;html=1;exitX=1;exitY=0.25;exitDx=0;exitDy=0;entryX=0;entryY=0.25;entryDx=0;entryDy=0;" edge="1" parent="1" source="zOngYcJwQ9FTCwN-Xkql-113" target="zOngYcJwQ9FTCwN-Xkql-116">
          <mxGeometry relative="1" as="geometry" />
        </mxCell>
        <mxCell id="zOngYcJwQ9FTCwN-Xkql-122" style="edgeStyle=orthogonalEdgeStyle;rounded=0;orthogonalLoop=1;jettySize=auto;html=1;exitX=0;exitY=0.75;exitDx=0;exitDy=0;entryX=1;entryY=0.75;entryDx=0;entryDy=0;" edge="1" parent="1" source="zOngYcJwQ9FTCwN-Xkql-110" target="zOngYcJwQ9FTCwN-Xkql-107">
          <mxGeometry relative="1" as="geometry" />
        </mxCell>
        <mxCell id="zOngYcJwQ9FTCwN-Xkql-123" style="edgeStyle=orthogonalEdgeStyle;rounded=0;orthogonalLoop=1;jettySize=auto;html=1;exitX=0;exitY=0.75;exitDx=0;exitDy=0;entryX=1;entryY=0.75;entryDx=0;entryDy=0;" edge="1" parent="1" source="zOngYcJwQ9FTCwN-Xkql-113" target="zOngYcJwQ9FTCwN-Xkql-110">
          <mxGeometry relative="1" as="geometry" />
        </mxCell>
        <mxCell id="zOngYcJwQ9FTCwN-Xkql-125" style="edgeStyle=orthogonalEdgeStyle;rounded=0;orthogonalLoop=1;jettySize=auto;html=1;exitX=0;exitY=0.75;exitDx=0;exitDy=0;entryX=1;entryY=0.75;entryDx=0;entryDy=0;" edge="1" parent="1" source="zOngYcJwQ9FTCwN-Xkql-116" target="zOngYcJwQ9FTCwN-Xkql-113">
          <mxGeometry relative="1" as="geometry" />
        </mxCell>
        <mxCell id="zOngYcJwQ9FTCwN-Xkql-128" value="" style="edgeStyle=orthogonalEdgeStyle;rounded=0;orthogonalLoop=1;jettySize=auto;html=1;fontSize=15;fontColor=#FF0000;" edge="1" parent="1" source="zOngYcJwQ9FTCwN-Xkql-116">
          <mxGeometry relative="1" as="geometry">
            <mxPoint x="800" y="680" as="targetPoint" />
          </mxGeometry>
        </mxCell>
        <mxCell id="zOngYcJwQ9FTCwN-Xkql-129" value="&lt;font color=&quot;#000000&quot;&gt;NULL&lt;/font&gt;" style="text;html=1;align=center;verticalAlign=middle;resizable=0;points=[];autosize=1;strokeColor=none;fontSize=15;fontColor=#FF0000;" vertex="1" parent="1">
          <mxGeometry x="800" y="670" width="50" height="20" as="geometry" />
        </mxCell>
        <mxCell id="zOngYcJwQ9FTCwN-Xkql-130" value="NULL" style="text;html=1;align=center;verticalAlign=middle;resizable=0;points=[];autosize=1;strokeColor=none;" vertex="1" parent="1">
          <mxGeometry x="20" y="670" width="50" height="20" as="geometry" />
        </mxCell>
        <mxCell id="zOngYcJwQ9FTCwN-Xkql-133" value="" style="edgeStyle=orthogonalEdgeStyle;rounded=0;orthogonalLoop=1;jettySize=auto;html=1;fontSize=15;fontColor=#FF0000;" edge="1" parent="1" source="zOngYcJwQ9FTCwN-Xkql-107" target="zOngYcJwQ9FTCwN-Xkql-130">
          <mxGeometry relative="1" as="geometry" />
        </mxCell>
        <mxCell id="zOngYcJwQ9FTCwN-Xkql-134" style="edgeStyle=orthogonalEdgeStyle;rounded=0;orthogonalLoop=1;jettySize=auto;html=1;exitX=1;exitY=0;exitDx=0;exitDy=0;fontSize=15;fontColor=#FF0000;" edge="1" parent="1" source="zOngYcJwQ9FTCwN-Xkql-111">
          <mxGeometry relative="1" as="geometry">
            <mxPoint x="710" y="660" as="targetPoint" />
            <Array as="points">
              <mxPoint x="380" y="660" />
              <mxPoint x="380" y="630" />
              <mxPoint x="710" y="630" />
              <mxPoint x="710" y="660" />
            </Array>
          </mxGeometry>
        </mxCell>
        <mxCell id="zOngYcJwQ9FTCwN-Xkql-137" value="①" style="edgeLabel;html=1;align=center;verticalAlign=middle;resizable=0;points=[];fontSize=15;fontColor=#FF0000;" vertex="1" connectable="0" parent="zOngYcJwQ9FTCwN-Xkql-134">
          <mxGeometry x="-0.0553" y="1" relative="1" as="geometry">
            <mxPoint as="offset" />
          </mxGeometry>
        </mxCell>
        <mxCell id="zOngYcJwQ9FTCwN-Xkql-135" style="edgeStyle=orthogonalEdgeStyle;rounded=0;orthogonalLoop=1;jettySize=auto;html=1;entryX=0.925;entryY=1.026;entryDx=0;entryDy=0;entryPerimeter=0;fontSize=15;fontColor=#FF0000;" edge="1" parent="1" target="zOngYcJwQ9FTCwN-Xkql-110">
          <mxGeometry relative="1" as="geometry">
            <mxPoint x="710" y="701" as="sourcePoint" />
            <Array as="points">
              <mxPoint x="710" y="730" />
              <mxPoint x="382" y="730" />
            </Array>
          </mxGeometry>
        </mxCell>
        <mxCell id="zOngYcJwQ9FTCwN-Xkql-138" value="②" style="edgeLabel;html=1;align=center;verticalAlign=middle;resizable=0;points=[];fontSize=15;fontColor=#FF0000;" vertex="1" connectable="0" parent="zOngYcJwQ9FTCwN-Xkql-135">
          <mxGeometry x="0.0959" y="1" relative="1" as="geometry">
            <mxPoint x="1" as="offset" />
          </mxGeometry>
        </mxCell>
        <mxCell id="zOngYcJwQ9FTCwN-Xkql-139" value="①p-&amp;gt;next = q-&amp;gt;next;" style="text;html=1;align=center;verticalAlign=middle;resizable=0;points=[];autosize=1;strokeColor=none;fontSize=15;fontColor=#FF0000;" vertex="1" parent="1">
          <mxGeometry x="185" y="760" width="150" height="20" as="geometry" />
        </mxCell>
        <mxCell id="zOngYcJwQ9FTCwN-Xkql-140" value="&amp;nbsp;②q-&amp;gt;next-&amp;gt;prior = p;" style="text;html=1;align=center;verticalAlign=middle;resizable=0;points=[];autosize=1;strokeColor=none;fontSize=15;fontColor=#FF0000;" vertex="1" parent="1">
          <mxGeometry x="180" y="790" width="160" height="20" as="geometry" />
        </mxCell>
        <mxCell id="zOngYcJwQ9FTCwN-Xkql-142" value="" style="edgeStyle=orthogonalEdgeStyle;rounded=0;orthogonalLoop=1;jettySize=auto;html=1;fontSize=15;fontColor=#FF0000;" edge="1" parent="1" source="zOngYcJwQ9FTCwN-Xkql-141" target="zOngYcJwQ9FTCwN-Xkql-111">
          <mxGeometry relative="1" as="geometry" />
        </mxCell>
        <mxCell id="zOngYcJwQ9FTCwN-Xkql-141" value="&lt;font color=&quot;#000000&quot;&gt;p&lt;/font&gt;" style="text;html=1;align=center;verticalAlign=middle;resizable=0;points=[];autosize=1;strokeColor=none;fontSize=15;fontColor=#FF0000;" vertex="1" parent="1">
          <mxGeometry x="330" y="730" width="20" height="20" as="geometry" />
        </mxCell>
        <mxCell id="zOngYcJwQ9FTCwN-Xkql-144" value="" style="edgeStyle=orthogonalEdgeStyle;rounded=0;orthogonalLoop=1;jettySize=auto;html=1;fontSize=15;fontColor=#FF0000;" edge="1" parent="1" source="zOngYcJwQ9FTCwN-Xkql-143" target="zOngYcJwQ9FTCwN-Xkql-114">
          <mxGeometry relative="1" as="geometry" />
        </mxCell>
        <mxCell id="zOngYcJwQ9FTCwN-Xkql-143" value="&lt;font color=&quot;#000000&quot;&gt;q&lt;/font&gt;" style="text;html=1;align=center;verticalAlign=middle;resizable=0;points=[];autosize=1;strokeColor=none;fontSize=15;fontColor=#FF0000;" vertex="1" parent="1">
          <mxGeometry x="500" y="750" width="20" height="20" as="geometry" />
        </mxCell>
      </root>
    </mxGraphModel>
  </diagram>
</mxfile>
